<svg viewBox="0 0 105 87" xmlns="http://www.w3.org/2000/svg">
    <g fill="#e30613" fill-rule="evenodd">
        <path d="M2.024 9.99H.778V6.393h1.246V1.87h4.275v4.523h1.779V9.99h-1.78v11.29c0 .712.356.962.996.962h.784v3.597H5.515c-2.066 0-3.49-1.033-3.49-3.42V9.99zm13.392 1.247c0-.962-.392-1.354-.997-1.354-.57 0-.962.392-.962 1.353v14.603H9.148V.267h4.31V7.39c.5-.712 1.425-1.282 2.636-1.282 2.208 0 3.597 1.638 3.597 4.31v15.42h-4.274V11.237zM26.35 26.124c-3.205 0-5.128-1.924-5.128-4.773v-10.47c0-2.85 1.923-4.773 5.128-4.773 3.242 0 4.987 1.923 4.987 4.772v5.877H25.46v4.38c0 .927.32 1.318.89 1.318.57 0 .89-.391.89-1.318v-2.315h4.097v2.53c0 2.848-1.745 4.772-4.987 4.772zm-.89-12.394h1.78v-2.636c0-.926-.32-1.318-.89-1.318-.57 0-.89.392-.89 1.318v2.636zM8.222 37.787v-4.522c0-.962-.32-1.567-1.104-1.567s-1.14.605-1.14 1.567v15.386c0 .961.356 1.567 1.14 1.567.783 0 1.104-.606 1.104-1.567v-4.88h4.345v5.164c0 3.099-2.066 5.093-5.45 5.093-3.347 0-5.591-1.994-5.591-5.093V32.98c0-3.099 2.244-5.093 5.592-5.093 3.383 0 5.449 1.994 5.449 5.093v4.808H8.222zm17.63-9.615v25.571H21.4V42.489h-2.814v11.254h-4.452V28.172h4.452v10.364H21.4V28.172zm8.512 0h4.452v20.763c0 3.1-2.244 5.094-5.627 5.094-3.383 0-5.663-1.995-5.663-5.094V28.172h4.452v20.479c0 .961.428 1.567 1.211 1.567.784 0 1.175-.606 1.175-1.567v-20.48zm10.579 14.531v11.04h-4.452v-25.57h6.126c3.383 0 5.164 1.71 5.164 4.808v4.416c0 1.567-.748 2.85-2.208 3.384 1.53.605 2.172 1.958 2.172 3.525v6.055c0 1.318.071 2.564.392 3.384H47.72c-.356-.784-.427-1.995-.427-3.277v-6.055c0-1.104-.392-1.71-1.46-1.71h-.89zm1.175-10.686h-1.175v6.874h1.175c.783 0 1.21-.499 1.21-1.46v-3.954c0-.926-.427-1.46-1.21-1.46zm13.783 5.77v-4.522c0-.962-.32-1.567-1.103-1.567-.784 0-1.14.605-1.14 1.567v15.386c0 .961.356 1.567 1.14 1.567.783 0 1.103-.606 1.103-1.567v-4.88h4.345v5.164c0 3.099-2.065 5.093-5.448 5.093-3.349 0-5.592-1.994-5.592-5.093V32.98c0-3.099 2.243-5.093 5.592-5.093 3.383 0 5.448 1.994 5.448 5.093v4.808h-4.345zm17.631-9.615v25.571H73.08V42.489h-2.814v11.254h-4.452V28.172h4.452v10.364h2.814V28.172zm1.852 25.572h4.452V28.172h-4.452zm10.684-25.572v21.582h4.524v3.989h-8.904V28.172zm10.187 0v21.582h4.523v3.989h-8.904V28.172zM6.334 55.831h1.745v3.562h-.57c-.819 0-1.21.391-1.21 1.175v1.39h1.779v3.596h-1.78v15.849H2.024V65.554H.778v-3.597h1.246v-2.173c0-2.421 1.639-3.953 4.31-3.953m7.444 25.857c-3.206 0-5.129-1.923-5.129-4.772V66.445c0-2.85 1.923-4.773 5.129-4.773 3.24 0 4.986 1.923 4.986 4.773v5.876h-5.876v4.38c0 .927.321 1.319.89 1.319.57 0 .891-.392.891-1.318v-2.315h4.096v2.529c0 2.849-1.745 4.772-4.986 4.772zm-.89-12.394h1.78v-2.637c0-.926-.32-1.317-.89-1.317-.57 0-.89.391-.89 1.317v2.636zm7.336 12.109h4.31V55.831h-4.31zm6.019 0h4.31V55.831h-4.31zM37.32 61.672c3.205 0 5.164 1.959 5.164 4.808v10.4c0 2.85-1.959 4.808-5.164 4.808-3.206 0-5.164-1.959-5.164-4.808v-10.4c0-2.85 1.958-4.808 5.164-4.808m-.926 5.022v9.972c0 .962.356 1.353.926 1.353.57 0 .926-.391.926-1.353v-9.972c0-.962-.357-1.354-.926-1.354-.57 0-.926.392-.926 1.354m14.389 3.063h-.072l-1.14 11.646h-4.024l-2.529-19.446h4.167l1.069 11.931h.071l1.033-11.931h3.099l1.068 11.931h.107l1.033-11.931h3.81l-2.564 19.446h-4.025zM63.533 81.688c-3.027 0-4.808-1.78-4.808-4.416v-2.815h3.918v2.386c0 .89.25 1.318.89 1.318.606 0 .89-.427.89-1.318v-1.175c0-.783-.248-1.211-.747-1.603l-3.027-2.172c-1.105-.748-1.888-1.923-1.888-3.562v-1.852c0-2.92 1.745-4.808 4.986-4.808 3.028 0 4.737 1.781 4.737 4.416v2.636h-3.918v-2.208c0-.962-.249-1.354-.854-1.354-.641 0-.855.392-.855 1.283v1.104c0 .676.142.997.819 1.567l2.92 2.208c1.39.997 1.96 1.959 1.96 3.74v1.745c0 3.027-1.746 4.88-5.023 4.88M76.07 66.801c0-.962-.391-1.354-.997-1.354-.57 0-.961.392-.961 1.354v14.602h-4.31V55.831h4.31v7.123c.498-.712 1.424-1.282 2.635-1.282 2.208 0 3.597 1.639 3.597 4.31v15.421H76.07V66.801zM81.983 60.212h4.31v-4.38h-4.31v4.38zm0 21.191h4.31V61.957h-4.31v19.446zm12.893.285c-1.176 0-2.066-.57-2.565-1.282v6.34h-4.31V61.957h4.31v.997c.5-.712 1.39-1.282 2.565-1.282 2.137 0 3.561 1.638 3.561 4.31v11.395c0 2.672-1.424 4.31-3.561 4.31m-1.638-16.24c-.606 0-.927.391-.927 1.353v9.758c0 .962.321 1.354.927 1.354.57 0 .926-.392.926-1.354V66.8c0-.962-.357-1.354-.926-1.354"></path>
    </g>
</svg>